<svg width="14" height="14" viewBox="0 0 14 14" fill="none" xmlns="http://www.w3.org/2000/svg">
<path d="M0.981971 4.34923C1.0382 3.48352 1.73423 2.80506 2.6007 2.76213C3.85542 2.69997 5.64877 2.625 7 2.625C8.35123 2.625 10.1446 2.69997 11.3993 2.76213C12.2658 2.80506 12.9618 3.48352 13.018 4.34923C13.0719 5.17866 13.125 6.19923 13.125 7C13.125 7.80077 13.0719 8.82135 13.018 9.65077C12.9618 10.5165 12.2658 11.1949 11.3993 11.2379C10.1446 11.3 8.35123 11.375 7 11.375C5.64877 11.375 3.85542 11.3 2.6007 11.2379C1.73423 11.1949 1.0382 10.5165 0.981971 9.65076C0.928097 8.82134 0.875 7.80077 0.875 7C0.875 6.19923 0.928097 5.17866 0.981971 4.34923Z" fill="#FC0D1B"/>
<path d="M5.6875 5.25V8.75L9.1875 7L5.6875 5.25Z" fill="white"/>
</svg>
